{
  "accessors": [
    {
      "bufferView": 2,
      "componentType": 5126,
      "count": 1144,
      "max": [
        2.3581197261810303,
        0.9373490810394287,
        1.02992582321167
      ],
      "min": [
        -2.267451524734497,
        -0.9373490810394287,
        -0.9840399622917175
      ],
      "type": "VEC3"
    },
    {
      "bufferView": 2,
      "byteOffset": 13728,
      "componentType": 5126,
      "count": 1144,
      "max": [
        1.0,
        1.0,
        0.9999969005584717
      ],
      "min": [
        -0.995711088180542,
        -1.0,
        -0.9996713399887085
      ],
      "type": "VEC3"
    },
    {
      "bufferView": 1,
      "componentType": 5126,
      "count": 1144,
      "max": [
        0.9046988487243652,
        0.9473618865013123
      ],
      "min": [
        0.08859572559595108,
        0.07155323028564453
      ],
      "type": "VEC2"
    },
    {
      "bufferView": 0,
      "componentType": 5125,
      "count": 4200,
      "type": "SCALAR"
    }
  ],
  "asset": {
    "extras": {
      "author": "LEON elenaisakova248 (https://sketchfab.com/elenaisakova248)",
      "license": "CC-BY-4.0 (http://creativecommons.org/licenses/by/4.0/)",
      "source": "https://sketchfab.com/3d-models/toyota-yaris-1999-7581a99e2b4f49b4bec56b35e388e943",
      "title": "Toyota Yaris 1999"
    },
    "generator": "Sketchfab-16.87.0",
    "version": "2.0"
  },
  "bufferViews": [
    {
      "buffer": 0,
      "byteLength": 16800,
      "name": "floatBufferViews",
      "target": 34963
    },
    {
      "buffer": 0,
      "byteLength": 9152,
      "byteOffset": 16800,
      "byteStride": 8,
      "name": "floatBufferViews",
      "target": 34962
    },
    {
      "buffer": 0,
      "byteLength": 27456,
      "byteOffset": 25952,
      "byteStride": 12,
      "name": "floatBufferViews",
      "target": 34962
    }
  ],
  "buffers": [
    {
      "byteLength": 53408,
      "uri": "scene.bin"
    }
  ],
  "images": [
    {
      "uri": "textures/Material.001_baseColor.png"
    }
  ],
  "materials": [
    {
      "doubleSided": true,
      "name": "Material.001",
      "pbrMetallicRoughness": {
        "baseColorTexture": {
          "index": 0
        },
        "metallicFactor": 0.0,
        "roughnessFactor": 0.5
      }
    }
  ],
  "meshes": [
    {
      "name": "Object_0",
      "primitives": [
        {
          "attributes": {
            "NORMAL": 1,
            "POSITION": 0,
            "TEXCOORD_0": 2
          },
          "indices": 3,
          "material": 0,
          "mode": 4
        }
      ]
    }
  ],
  "nodes": [
    {
      "children": [
        1
      ],
      "matrix": [
        1.0,
        0.0,
        0.0,
        0.0,
        0.0,
        2.220446049250313e-16,
        -1.0,
        0.0,
        0.0,
        1.0,
        2.220446049250313e-16,
        0.0,
        0.0,
        0.0,
        0.0,
        1.0
      ],
      "name": "Sketchfab_model"
    },
    {
      "children": [
        2
      ],
      "name": "root"
    },
    {
      "children": [
        3
      ],
      "matrix": [
        1.0,
        0.0,
        0.0,
        0.0,
        0.0,
        2.220446049250313e-16,
        1.0,
        0.0,
        0.0,
        -1.0,
        2.220446049250313e-16,
        0.0,
        0.0,
        0.0,
        0.0,
        1.0
      ],
      "name": "GLTF_SceneRootNode"
    },
    {
      "children": [
        4
      ],
      "matrix": [
        -2.9802322387695313e-08,
        2.980232327587373e-08,
        -0.9999999999999991,
        0.0,
        1.1299006938934315,
        -3.3673664745492715e-08,
        -3.367366574904613e-08,
        0.0,
        -2.980232327587373e-08,
        -0.9999999999999991,
        -2.9802322387695313e-08,
        0.0,
        0.0,
        0.0,
        0.0,
        1.0
      ],
      "name": "Plane_2"
    },
    {
      "mesh": 0,
      "name": "Object_4"
    }
  ],
  "samplers": [
    {
      "magFilter": 9729,
      "minFilter": 9987,
      "wrapS": 10497,
      "wrapT": 10497
    }
  ],
  "scene": 0,
  "scenes": [
    {
      "name": "Sketchfab_Scene",
      "nodes": [
        0
      ]
    }
  ],
  "textures": [
    {
      "sampler": 0,
      "source": 0
    }
  ]
}
