{
  "accessors": [
    {
      "bufferView": 2,
      "componentType": 5126,
      "count": 916,
      "max": [
        0.6212676763534546,
        1.3124194145202637,
        0.5060216188430786
      ],
      "min": [
        -0.6212676763534546,
        -1.2098013162612915,
        -0.40175187587738037
      ],
      "type": "VEC3"
    },
    {
      "bufferView": 2,
      "byteOffset": 10992,
      "componentType": 5126,
      "count": 916,
      "max": [
        1.0,
        1.0,
        1.0
      ],
      "min": [
        -1.0,
        -1.0,
        -1.0
      ],
      "type": "VEC3"
    },
    {
      "bufferView": 1,
      "componentType": 5126,
      "count": 916,
      "max": [
        0.9892334342002869,
        0.97444087266922
      ],
      "min": [
        0.0359419509768486,
        0.043574944138526917
      ],
      "type": "VEC2"
    },
    {
      "bufferView": 0,
      "componentType": 5125,
      "count": 2766,
      "type": "SCALAR"
    },
    {
      "bufferView": 2,
      "byteOffset": 21984,
      "componentType": 5126,
      "count": 387,
      "max": [
        0.062141865491867065,
        0.20713947713375092,
        0.20713946223258972
      ],
      "min": [
        -0.06214183568954468,
        -0.20713944733142853,
        -0.2071394920349121
      ],
      "type": "VEC3"
    },
    {
      "bufferView": 2,
      "byteOffset": 26628,
      "componentType": 5126,
      "count": 387,
      "max": [
        1.0,
        1.0,
        1.0
      ],
      "min": [
        -1.0,
        -1.0,
        -1.0
      ],
      "type": "VEC3"
    },
    {
      "bufferView": 1,
      "byteOffset": 7328,
      "componentType": 5126,
      "count": 387,
      "max": [
        0.2903844714164734,
        0.13878589868545532
      ],
      "min": [
        0.1454581320285797,
        0.0024432744830846786
      ],
      "type": "VEC2"
    },
    {
      "bufferView": 0,
      "byteOffset": 11064,
      "componentType": 5125,
      "count": 1140,
      "type": "SCALAR"
    },
    {
      "bufferView": 2,
      "byteOffset": 31272,
      "componentType": 5126,
      "count": 387,
      "max": [
        0.062141891568899155,
        0.20713947713375092,
        0.20713946223258972
      ],
      "min": [
        -0.062141869217157364,
        -0.20713944733142853,
        -0.2071394920349121
      ],
      "type": "VEC3"
    },
    {
      "bufferView": 2,
      "byteOffset": 35916,
      "componentType": 5126,
      "count": 387,
      "max": [
        1.0,
        1.0,
        1.0
      ],
      "min": [
        -1.0,
        -1.0,
        -1.0
      ],
      "type": "VEC3"
    },
    {
      "bufferView": 1,
      "byteOffset": 10424,
      "componentType": 5126,
      "count": 387,
      "max": [
        0.2903844714164734,
        0.13878589868545532
      ],
      "min": [
        0.1454581320285797,
        0.0024432744830846786
      ],
      "type": "VEC2"
    },
    {
      "bufferView": 0,
      "byteOffset": 15624,
      "componentType": 5125,
      "count": 1140,
      "type": "SCALAR"
    },
    {
      "bufferView": 2,
      "byteOffset": 40560,
      "componentType": 5126,
      "count": 387,
      "max": [
        0.062141865491867065,
        0.20709000527858734,
        0.20709015429019928
      ],
      "min": [
        -0.06214183568954468,
        -0.20708997547626495,
        -0.20709018409252167
      ],
      "type": "VEC3"
    },
    {
      "bufferView": 2,
      "byteOffset": 45204,
      "componentType": 5126,
      "count": 387,
      "max": [
        1.0,
        0.9997621774673462,
        0.9997621774673462
      ],
      "min": [
        -1.0,
        -0.999762237071991,
        -0.9997621774673462
      ],
      "type": "VEC3"
    },
    {
      "bufferView": 1,
      "byteOffset": 13520,
      "componentType": 5126,
      "count": 387,
      "max": [
        0.2903844714164734,
        0.13878589868545532
      ],
      "min": [
        0.1454581320285797,
        0.0024432744830846786
      ],
      "type": "VEC2"
    },
    {
      "bufferView": 0,
      "byteOffset": 20184,
      "componentType": 5125,
      "count": 1140,
      "type": "SCALAR"
    },
    {
      "bufferView": 2,
      "byteOffset": 49848,
      "componentType": 5126,
      "count": 387,
      "max": [
        0.062141891568899155,
        0.20709000527858734,
        0.20709015429019928
      ],
      "min": [
        -0.062141869217157364,
        -0.20708997547626495,
        -0.20709018409252167
      ],
      "type": "VEC3"
    },
    {
      "bufferView": 2,
      "byteOffset": 54492,
      "componentType": 5126,
      "count": 387,
      "max": [
        1.0,
        0.9997621774673462,
        0.9997621178627014
      ],
      "min": [
        -1.0,
        -0.999762237071991,
        -0.9997621774673462
      ],
      "type": "VEC3"
    },
    {
      "bufferView": 1,
      "byteOffset": 16616,
      "componentType": 5126,
      "count": 387,
      "max": [
        0.2903844714164734,
        0.13878589868545532
      ],
      "min": [
        0.1454581320285797,
        0.0024432744830846786
      ],
      "type": "VEC2"
    },
    {
      "bufferView": 0,
      "byteOffset": 24744,
      "componentType": 5125,
      "count": 1140,
      "type": "SCALAR"
    }
  ],
  "asset": {
    "extras": {
      "author": "ImperialBlue (https://sketchfab.com/efemetin)",
      "license": "CC-BY-4.0 (http://creativecommons.org/licenses/by/4.0/)",
      "source": "https://sketchfab.com/3d-models/2009-toyota-yaris-8c66eb592afb4ea7872fc219a5c467e8",
      "title": "2009 Toyota Yaris"
    },
    "generator": "Sketchfab-16.61.0",
    "version": "2.0"
  },
  "bufferViews": [
    {
      "buffer": 0,
      "byteLength": 29304,
      "name": "floatBufferViews",
      "target": 34963
    },
    {
      "buffer": 0,
      "byteLength": 19712,
      "byteOffset": 29304,
      "byteStride": 8,
      "name": "floatBufferViews",
      "target": 34962
    },
    {
      "buffer": 0,
      "byteLength": 59136,
      "byteOffset": 49016,
      "byteStride": 12,
      "name": "floatBufferViews",
      "target": 34962
    }
  ],
  "buffers": [
    {
      "byteLength": 108152,
      "uri": "scene.bin"
    }
  ],
  "images": [
    {
      "uri": "textures/Material_baseColor.png"
    }
  ],
  "materials": [
    {
      "doubleSided": true,
      "name": "Material",
      "pbrMetallicRoughness": {
        "baseColorTexture": {
          "index": 0
        },
        "metallicFactor": 0.0,
        "roughnessFactor": 0.4
      }
    }
  ],
  "meshes": [
    {
      "name": "Body_Material_0",
      "primitives": [
        {
          "attributes": {
            "NORMAL": 1,
            "POSITION": 0,
            "TEXCOORD_0": 2
          },
          "indices": 3,
          "material": 0,
          "mode": 4
        }
      ]
    },
    {
      "name": "FL_Material_0",
      "primitives": [
        {
          "attributes": {
            "NORMAL": 5,
            "POSITION": 4,
            "TEXCOORD_0": 6
          },
          "indices": 7,
          "material": 0,
          "mode": 4
        }
      ]
    },
    {
      "name": "FR_Material_0",
      "primitives": [
        {
          "attributes": {
            "NORMAL": 9,
            "POSITION": 8,
            "TEXCOORD_0": 10
          },
          "indices": 11,
          "material": 0,
          "mode": 4
        }
      ]
    },
    {
      "name": "RL_Material_0",
      "primitives": [
        {
          "attributes": {
            "NORMAL": 13,
            "POSITION": 12,
            "TEXCOORD_0": 14
          },
          "indices": 15,
          "material": 0,
          "mode": 4
        }
      ]
    },
    {
      "name": "RR_Material_0",
      "primitives": [
        {
          "attributes": {
            "NORMAL": 17,
            "POSITION": 16,
            "TEXCOORD_0": 18
          },
          "indices": 19,
          "material": 0,
          "mode": 4
        }
      ]
    }
  ],
  "nodes": [
    {
      "children": [
        1
      ],
      "matrix": [
        1.6666666269302368,
        0.0,
        0.0,
        0.0,
        0.0,
        3.70074332718459e-16,
        -1.6666666269302368,
        0.0,
        0.0,
        1.6666666269302368,
        3.70074332718459e-16,
        0.0,
        0.0,
        0.0,
        0.0,
        1.0
      ],
      "name": "Sketchfab_model"
    },
    {
      "children": [
        2
      ],
      "matrix": [
        0.009999999776482582,
        0.0,
        0.0,
        0.0,
        0.0,
        0.0,
        0.009999999776482582,
        0.0,
        0.0,
        -0.009999999776482582,
        0.0,
        0.0,
        0.0,
        0.0,
        0.0,
        1.0
      ],
      "name": "6c76f04d8c68428ead1be4b22af5cdc2.fbx"
    },
    {
      "children": [
        3,
        5,
        7,
        9,
        11
      ],
      "name": "RootNode"
    },
    {
      "children": [
        4
      ],
      "matrix": [
        100.0,
        0.0,
        0.0,
        0.0,
        0.0,
        -1.629206793918314e-05,
        -99.99999999999868,
        0.0,
        0.0,
        99.99999999999868,
        -1.629206793918314e-05,
        0.0,
        2.5603454560041428e-05,
        19.474769592285156,
        8.447491645812988,
        1.0
      ],
      "name": "Body"
    },
    {
      "mesh": 0,
      "name": "Body_Material_0"
    },
    {
      "children": [
        6
      ],
      "matrix": [
        100.0,
        0.0,
        0.0,
        0.0,
        -0.0,
        -1.629206793918314e-05,
        -99.99999999999868,
        0.0,
        0.0,
        99.99999999999868,
        -1.629206793918314e-05,
        0.0,
        -49.6204833984375,
        -12.526765823364258,
        77.56626892089844,
        1.0
      ],
      "name": "FL"
    },
    {
      "mesh": 1,
      "name": "FL_Material_0"
    },
    {
      "children": [
        8
      ],
      "matrix": [
        100.0,
        0.0,
        0.0,
        0.0,
        0.0,
        -1.629206793918314e-05,
        -99.99999999999868,
        0.0,
        0.0,
        99.99999999999868,
        -1.629206793918314e-05,
        0.0,
        49.62052536010742,
        -12.526765823364258,
        77.56626892089844,
        1.0
      ],
      "name": "FR"
    },
    {
      "mesh": 2,
      "name": "FR_Material_0"
    },
    {
      "children": [
        10
      ],
      "matrix": [
        100.0,
        0.0,
        0.0,
        0.0,
        -0.0,
        -1.629206793918314e-05,
        -99.99999999999868,
        0.0,
        0.0,
        99.99999999999868,
        -1.629206793918314e-05,
        0.0,
        -49.6204833984375,
        -12.526737213134766,
        -88.43360137939453,
        1.0
      ],
      "name": "RL"
    },
    {
      "mesh": 3,
      "name": "RL_Material_0"
    },
    {
      "children": [
        12
      ],
      "matrix": [
        100.0,
        0.0,
        0.0,
        0.0,
        0.0,
        -1.629206793918314e-05,
        -99.99999999999868,
        0.0,
        0.0,
        99.99999999999868,
        -1.629206793918314e-05,
        0.0,
        49.62052536010742,
        -12.526737213134766,
        -88.43360137939453,
        1.0
      ],
      "name": "RR"
    },
    {
      "mesh": 4,
      "name": "RR_Material_0"
    }
  ],
  "samplers": [
    {
      "magFilter": 9729,
      "minFilter": 9987,
      "wrapS": 10497,
      "wrapT": 10497
    }
  ],
  "scene": 0,
  "scenes": [
    {
      "name": "Sketchfab_Scene",
      "nodes": [
        0
      ]
    }
  ],
  "textures": [
    {
      "sampler": 0,
      "source": 0
    }
  ]
}
